<mxfile host="app.diagrams.net" modified="2023-03-14T09:21:13.076Z" agent="5.0 (Windows)" etag="akzgdEmzcRXR7uOvVQB8" version="21.0.6" type="github">
  <diagram name="Seite-1" id="KA6z9-QfwAhSkeIakspH">
    <mxGraphModel dx="2550" dy="1273" grid="1" gridSize="10" guides="1" tooltips="1" connect="1" arrows="1" fold="1" page="0" pageScale="1" pageWidth="827" pageHeight="1169" math="0" shadow="0">
      <root>
        <mxCell id="0" />
        <mxCell id="1" parent="0" />
        <mxCell id="jw5DjISpnK0hP9MxYK5e-75" value="RoomFinder" style="swimlane;fontStyle=0;childLayout=stackLayout;horizontal=1;startSize=30;horizontalStack=0;resizeParent=1;resizeParentMax=0;resizeLast=0;collapsible=1;marginBottom=0;whiteSpace=wrap;html=1;swimlaneFillColor=default;" parent="1" vertex="1">
          <mxGeometry x="-260" y="660" width="140" height="60" as="geometry" />
        </mxCell>
        <mxCell id="QIfAh_MvAZiLwB0yGpU8-30" style="edgeStyle=orthogonalEdgeStyle;rounded=0;orthogonalLoop=1;jettySize=auto;html=1;exitX=0;exitY=0.25;exitDx=0;exitDy=0;entryX=1;entryY=0.25;entryDx=0;entryDy=0;endArrow=none;endFill=0;" edge="1" parent="1" source="QIfAh_MvAZiLwB0yGpU8-1" target="jw5DjISpnK0hP9MxYK5e-34">
          <mxGeometry relative="1" as="geometry" />
        </mxCell>
        <mxCell id="QIfAh_MvAZiLwB0yGpU8-31" value="&amp;nbsp;&amp;lt; adds" style="edgeLabel;html=1;align=center;verticalAlign=middle;resizable=0;points=[];" vertex="1" connectable="0" parent="QIfAh_MvAZiLwB0yGpU8-30">
          <mxGeometry x="0.1012" y="2" relative="1" as="geometry">
            <mxPoint as="offset" />
          </mxGeometry>
        </mxCell>
        <mxCell id="QIfAh_MvAZiLwB0yGpU8-1" value="Management" style="swimlane;fontStyle=0;childLayout=stackLayout;horizontal=1;startSize=30;horizontalStack=0;resizeParent=1;resizeParentMax=0;resizeLast=0;collapsible=1;marginBottom=0;whiteSpace=wrap;html=1;swimlaneFillColor=default;" vertex="1" parent="1">
          <mxGeometry x="340" y="290" width="140" height="60" as="geometry" />
        </mxCell>
        <mxCell id="QIfAh_MvAZiLwB0yGpU8-6" style="edgeStyle=orthogonalEdgeStyle;rounded=0;orthogonalLoop=1;jettySize=auto;html=1;exitX=0.993;exitY=0.073;exitDx=0;exitDy=0;entryX=0.001;entryY=0.071;entryDx=0;entryDy=0;entryPerimeter=0;endArrow=none;endFill=0;exitPerimeter=0;" edge="1" parent="1" source="jw5DjISpnK0hP9MxYK5e-18" target="jw5DjISpnK0hP9MxYK5e-9">
          <mxGeometry relative="1" as="geometry" />
        </mxCell>
        <mxCell id="QIfAh_MvAZiLwB0yGpU8-9" value="&amp;nbsp;sucht &amp;gt; " style="edgeLabel;html=1;align=center;verticalAlign=middle;resizable=0;points=[];" vertex="1" connectable="0" parent="QIfAh_MvAZiLwB0yGpU8-6">
          <mxGeometry x="-0.0644" relative="1" as="geometry">
            <mxPoint as="offset" />
          </mxGeometry>
        </mxCell>
        <mxCell id="jw5DjISpnK0hP9MxYK5e-1" value="Location" style="swimlane;fontStyle=0;childLayout=stackLayout;horizontal=1;startSize=30;horizontalStack=0;resizeParent=1;resizeParentMax=0;resizeLast=0;collapsible=1;marginBottom=0;whiteSpace=wrap;html=1;swimlaneFillColor=default;" parent="1" vertex="1">
          <mxGeometry x="-50" y="-270" width="140" height="60" as="geometry" />
        </mxCell>
        <mxCell id="jw5DjISpnK0hP9MxYK5e-55" value="buildings" style="text;strokeColor=none;fillColor=default;align=left;verticalAlign=middle;spacingLeft=4;spacingRight=4;overflow=hidden;points=[[0,0.5],[1,0.5]];portConstraint=eastwest;rotatable=0;whiteSpace=wrap;html=1;" parent="jw5DjISpnK0hP9MxYK5e-1" vertex="1">
          <mxGeometry y="30" width="140" height="30" as="geometry" />
        </mxCell>
        <mxCell id="jw5DjISpnK0hP9MxYK5e-5" value="Building" style="swimlane;fontStyle=0;childLayout=stackLayout;horizontal=1;startSize=30;horizontalStack=0;resizeParent=1;resizeParentMax=0;resizeLast=0;collapsible=1;marginBottom=0;whiteSpace=wrap;html=1;swimlaneFillColor=default;" parent="1" vertex="1">
          <mxGeometry x="-50" y="-140" width="140" height="60" as="geometry" />
        </mxCell>
        <mxCell id="jw5DjISpnK0hP9MxYK5e-56" value="pointsOfInterest" style="text;strokeColor=none;fillColor=default;align=left;verticalAlign=middle;spacingLeft=4;spacingRight=4;overflow=hidden;points=[[0,0.5],[1,0.5]];portConstraint=eastwest;rotatable=0;whiteSpace=wrap;html=1;" parent="jw5DjISpnK0hP9MxYK5e-5" vertex="1">
          <mxGeometry y="30" width="140" height="30" as="geometry" />
        </mxCell>
        <mxCell id="jw5DjISpnK0hP9MxYK5e-9" value="POI/Rooms" style="swimlane;fontStyle=0;childLayout=stackLayout;horizontal=1;startSize=30;horizontalStack=0;resizeParent=1;resizeParentMax=0;resizeLast=0;collapsible=1;marginBottom=0;whiteSpace=wrap;html=1;swimlaneFillColor=default;" parent="1" vertex="1">
          <mxGeometry x="-50" y="-10" width="140" height="60" as="geometry">
            <mxRectangle x="340" y="230" width="70" height="30" as="alternateBounds" />
          </mxGeometry>
        </mxCell>
        <mxCell id="jw5DjISpnK0hP9MxYK5e-57" value="listOfOrbs" style="text;strokeColor=none;fillColor=default;align=left;verticalAlign=middle;spacingLeft=4;spacingRight=4;overflow=hidden;points=[[0,0.5],[1,0.5]];portConstraint=eastwest;rotatable=0;whiteSpace=wrap;html=1;" parent="jw5DjISpnK0hP9MxYK5e-9" vertex="1">
          <mxGeometry y="30" width="140" height="30" as="geometry" />
        </mxCell>
        <mxCell id="jw5DjISpnK0hP9MxYK5e-34" value="Orb" style="swimlane;fontStyle=0;childLayout=stackLayout;horizontal=1;startSize=30;horizontalStack=0;resizeParent=1;resizeParentMax=0;resizeLast=0;collapsible=1;marginBottom=0;whiteSpace=wrap;html=1;swimlaneFillColor=default;" parent="1" vertex="1">
          <mxGeometry x="-50" y="290" width="140" height="60" as="geometry" />
        </mxCell>
        <mxCell id="jw5DjISpnK0hP9MxYK5e-35" value="orbId" style="text;strokeColor=none;fillColor=none;align=left;verticalAlign=middle;spacingLeft=4;spacingRight=4;overflow=hidden;points=[[0,0.5],[1,0.5]];portConstraint=eastwest;rotatable=0;whiteSpace=wrap;html=1;" parent="jw5DjISpnK0hP9MxYK5e-34" vertex="1">
          <mxGeometry y="30" width="140" height="30" as="geometry" />
        </mxCell>
        <mxCell id="jw5DjISpnK0hP9MxYK5e-51" style="edgeStyle=orthogonalEdgeStyle;rounded=0;orthogonalLoop=1;jettySize=auto;html=1;exitX=0.5;exitY=0;exitDx=0;exitDy=0;endArrow=none;endFill=0;" parent="1" source="jw5DjISpnK0hP9MxYK5e-5" target="jw5DjISpnK0hP9MxYK5e-1" edge="1">
          <mxGeometry relative="1" as="geometry" />
        </mxCell>
        <mxCell id="jw5DjISpnK0hP9MxYK5e-52" style="edgeStyle=orthogonalEdgeStyle;rounded=0;orthogonalLoop=1;jettySize=auto;html=1;exitX=0.5;exitY=0;exitDx=0;exitDy=0;endArrow=none;endFill=0;" parent="1" source="jw5DjISpnK0hP9MxYK5e-9" target="jw5DjISpnK0hP9MxYK5e-5" edge="1">
          <mxGeometry relative="1" as="geometry" />
        </mxCell>
        <mxCell id="jw5DjISpnK0hP9MxYK5e-53" style="edgeStyle=orthogonalEdgeStyle;rounded=0;orthogonalLoop=1;jettySize=auto;html=1;exitX=0.5;exitY=0;exitDx=0;exitDy=0;endArrow=none;endFill=0;" parent="1" source="jw5DjISpnK0hP9MxYK5e-34" target="jw5DjISpnK0hP9MxYK5e-9" edge="1">
          <mxGeometry relative="1" as="geometry" />
        </mxCell>
        <mxCell id="QIfAh_MvAZiLwB0yGpU8-11" value="is located in ^" style="edgeLabel;html=1;align=center;verticalAlign=middle;resizable=0;points=[];" vertex="1" connectable="0" parent="jw5DjISpnK0hP9MxYK5e-53">
          <mxGeometry x="0.1948" y="1" relative="1" as="geometry">
            <mxPoint as="offset" />
          </mxGeometry>
        </mxCell>
        <mxCell id="QIfAh_MvAZiLwB0yGpU8-14" style="edgeStyle=orthogonalEdgeStyle;rounded=0;orthogonalLoop=1;jettySize=auto;html=1;exitX=1;exitY=0.25;exitDx=0;exitDy=0;entryX=-0.002;entryY=0.147;entryDx=0;entryDy=0;entryPerimeter=0;endArrow=none;endFill=0;" edge="1" parent="1" source="jw5DjISpnK0hP9MxYK5e-27" target="jw5DjISpnK0hP9MxYK5e-34">
          <mxGeometry relative="1" as="geometry">
            <Array as="points">
              <mxPoint x="-370" y="310" />
              <mxPoint x="-350" y="310" />
            </Array>
          </mxGeometry>
        </mxCell>
        <mxCell id="QIfAh_MvAZiLwB0yGpU8-21" value="&amp;nbsp;&amp;lt; collects" style="edgeLabel;html=1;align=center;verticalAlign=middle;resizable=0;points=[];" vertex="1" connectable="0" parent="QIfAh_MvAZiLwB0yGpU8-14">
          <mxGeometry x="-0.0229" y="-1" relative="1" as="geometry">
            <mxPoint as="offset" />
          </mxGeometry>
        </mxCell>
        <mxCell id="QIfAh_MvAZiLwB0yGpU8-28" value="1 .. *" style="edgeLabel;html=1;align=center;verticalAlign=middle;resizable=0;points=[];" vertex="1" connectable="0" parent="QIfAh_MvAZiLwB0yGpU8-14">
          <mxGeometry x="-0.8929" relative="1" as="geometry">
            <mxPoint as="offset" />
          </mxGeometry>
        </mxCell>
        <mxCell id="QIfAh_MvAZiLwB0yGpU8-29" value="*" style="edgeLabel;html=1;align=center;verticalAlign=middle;resizable=0;points=[];" vertex="1" connectable="0" parent="QIfAh_MvAZiLwB0yGpU8-14">
          <mxGeometry x="0.8497" relative="1" as="geometry">
            <mxPoint as="offset" />
          </mxGeometry>
        </mxCell>
        <mxCell id="QIfAh_MvAZiLwB0yGpU8-15" value="Wireless-Protocol" style="swimlane;fontStyle=0;childLayout=stackLayout;horizontal=1;startSize=30;horizontalStack=0;resizeParent=1;resizeParentMax=0;resizeLast=0;collapsible=1;marginBottom=0;whiteSpace=wrap;html=1;" vertex="1" parent="1">
          <mxGeometry x="-270" y="380" width="140" height="60" as="geometry" />
        </mxCell>
        <mxCell id="QIfAh_MvAZiLwB0yGpU8-16" value="dateAndTime" style="text;strokeColor=none;fillColor=none;align=left;verticalAlign=middle;spacingLeft=4;spacingRight=4;overflow=hidden;points=[[0,0.5],[1,0.5]];portConstraint=eastwest;rotatable=0;whiteSpace=wrap;html=1;" vertex="1" parent="QIfAh_MvAZiLwB0yGpU8-15">
          <mxGeometry y="30" width="140" height="30" as="geometry" />
        </mxCell>
        <mxCell id="QIfAh_MvAZiLwB0yGpU8-20" value="" style="endArrow=none;dashed=1;html=1;rounded=0;exitX=0.5;exitY=0;exitDx=0;exitDy=0;" edge="1" parent="1" source="QIfAh_MvAZiLwB0yGpU8-15">
          <mxGeometry width="50" height="50" relative="1" as="geometry">
            <mxPoint x="-180" y="380" as="sourcePoint" />
            <mxPoint x="-200" y="310" as="targetPoint" />
          </mxGeometry>
        </mxCell>
        <mxCell id="QIfAh_MvAZiLwB0yGpU8-23" value="SearchSession" style="swimlane;fontStyle=0;childLayout=stackLayout;horizontal=1;startSize=30;horizontalStack=0;resizeParent=1;resizeParentMax=0;resizeLast=0;collapsible=1;marginBottom=0;whiteSpace=wrap;html=1;" vertex="1" parent="1">
          <mxGeometry x="-300" y="-240" width="140" height="60" as="geometry" />
        </mxCell>
        <mxCell id="QIfAh_MvAZiLwB0yGpU8-24" value="filterCriteria, searchLocation" style="text;strokeColor=none;fillColor=none;align=left;verticalAlign=middle;spacingLeft=4;spacingRight=4;overflow=hidden;points=[[0,0.5],[1,0.5]];portConstraint=eastwest;rotatable=0;whiteSpace=wrap;html=1;" vertex="1" parent="QIfAh_MvAZiLwB0yGpU8-23">
          <mxGeometry y="30" width="140" height="30" as="geometry" />
        </mxCell>
        <mxCell id="QIfAh_MvAZiLwB0yGpU8-27" value="" style="endArrow=none;dashed=1;html=1;rounded=0;entryX=0.506;entryY=1.081;entryDx=0;entryDy=0;entryPerimeter=0;" edge="1" parent="1" target="QIfAh_MvAZiLwB0yGpU8-24">
          <mxGeometry width="50" height="50" relative="1" as="geometry">
            <mxPoint x="-220" y="10" as="sourcePoint" />
            <mxPoint x="-180" as="targetPoint" />
          </mxGeometry>
        </mxCell>
        <mxCell id="jw5DjISpnK0hP9MxYK5e-18" value="Person" style="swimlane;fontStyle=0;childLayout=stackLayout;horizontal=1;startSize=30;horizontalStack=0;resizeParent=1;resizeParentMax=0;resizeLast=0;collapsible=1;marginBottom=0;whiteSpace=wrap;html=1;swimlaneFillColor=default;" parent="1" vertex="1">
          <mxGeometry x="-530" y="25" width="140" height="60" as="geometry" />
        </mxCell>
        <mxCell id="jw5DjISpnK0hP9MxYK5e-32" value="personId, devices" style="text;strokeColor=none;fillColor=none;align=left;verticalAlign=middle;spacingLeft=4;spacingRight=4;overflow=hidden;points=[[0,0.5],[1,0.5]];portConstraint=eastwest;rotatable=0;whiteSpace=wrap;html=1;" parent="jw5DjISpnK0hP9MxYK5e-18" vertex="1">
          <mxGeometry y="30" width="140" height="30" as="geometry" />
        </mxCell>
        <mxCell id="jw5DjISpnK0hP9MxYK5e-27" value="Device" style="swimlane;fontStyle=0;childLayout=stackLayout;horizontal=1;startSize=30;horizontalStack=0;resizeParent=1;resizeParentMax=0;resizeLast=0;collapsible=1;marginBottom=0;whiteSpace=wrap;html=1;swimlaneFillColor=default;" parent="1" vertex="1">
          <mxGeometry x="-520" y="295" width="140" height="60" as="geometry" />
        </mxCell>
        <mxCell id="jw5DjISpnK0hP9MxYK5e-28" value="&lt;div&gt;deviceId: String&lt;/div&gt;" style="text;strokeColor=none;fillColor=none;align=left;verticalAlign=middle;spacingLeft=4;spacingRight=4;overflow=hidden;points=[[0,0.5],[1,0.5]];portConstraint=eastwest;rotatable=0;whiteSpace=wrap;html=1;" parent="jw5DjISpnK0hP9MxYK5e-27" vertex="1">
          <mxGeometry y="30" width="140" height="30" as="geometry" />
        </mxCell>
        <mxCell id="jw5DjISpnK0hP9MxYK5e-68" style="edgeStyle=orthogonalEdgeStyle;rounded=0;orthogonalLoop=1;jettySize=auto;html=1;exitX=0.5;exitY=0;exitDx=0;exitDy=0;endArrow=diamondThin;endFill=1;entryX=0.479;entryY=1.028;entryDx=0;entryDy=0;entryPerimeter=0;" parent="1" source="jw5DjISpnK0hP9MxYK5e-27" target="jw5DjISpnK0hP9MxYK5e-32" edge="1">
          <mxGeometry relative="1" as="geometry">
            <mxPoint x="-696.6400000000001" y="240.83999999999992" as="targetPoint" />
          </mxGeometry>
        </mxCell>
        <mxCell id="QIfAh_MvAZiLwB0yGpU8-22" value="&lt;div&gt;owns v&lt;/div&gt;" style="edgeLabel;html=1;align=center;verticalAlign=middle;resizable=0;points=[];" vertex="1" connectable="0" parent="jw5DjISpnK0hP9MxYK5e-68">
          <mxGeometry x="-0.1299" y="2" relative="1" as="geometry">
            <mxPoint as="offset" />
          </mxGeometry>
        </mxCell>
      </root>
    </mxGraphModel>
  </diagram>
</mxfile>
